<svg aria-hidden="true" style="position: absolute; width: 0; height: 0; overflow: hidden;" version="1.1" xmlns="http://www.w3.org/2000/svg" xmlns:xlink="http://www.w3.org/1999/xlink">
<defs>
<symbol id="house" viewBox="0 0 32 32">
<path fill="#fff3e0" style="fill: var(--color1, #fff3e0)" d="M16 32c8.836 0 16-7.164 16-16s-7.164-16-16-16c-8.837 0-16 7.163-16 16s7.163 16 16 16z"></path>
<path fill="#fff" style="fill: var(--color2, #fff)" d="M22.934 15.282v9.981h-13.866v-9.981l6.933-7.192 6.933 7.192z"></path>
<path fill="#ff9c08" style="fill: var(--color3, #ff9c08)" d="M11.279 25.263v-7.809h3.845v7.809h-3.845zM16.001 6.536l-9.244 9.363 1.175 1.175 8.068-8.387 8.068 8.387 1.175-1.175-2.311-2.331v-5.479h-2.311v3.128l-4.622-4.682z"></path>
<path fill="#ff9c08" style="fill: var(--color3, #ff9c08)" d="M12.913 14.744c0.618-3.466 5.538-3.466 6.156 0h-6.156z"></path>
<path fill="#090909" style="fill: var(--color4, #090909)" d="M22.934 25.86h-13.866c-0.339 0-0.598-0.259-0.598-0.598v-7.989h-0.936c-0.159 0-0.319-0.060-0.438-0.179l-0.777-0.777c-0.239-0.239-0.239-0.598 0-0.837l9.244-9.363c0.219-0.219 0.618-0.219 0.857 0l3.586 3.646v-1.673c0-0.339 0.259-0.598 0.598-0.598h2.311c0.339 0 0.598 0.259 0.598 0.598v5.22l2.132 2.171c0.239 0.239 0.239 0.598 0 0.837l-0.777 0.777c-0.119 0.12-0.259 0.179-0.418 0.179h-0.936v7.989c0.020 0.339-0.259 0.598-0.578 0.598zM9.666 24.665h12.65v-7.989c0-0.159 0.060-0.319 0.179-0.418 0.119-0.12 0.279-0.179 0.418-0.179h1.295l0.179-0.179-1.893-1.912c-0.12-0.12-0.179-0.259-0.179-0.418v-4.881h-1.116v2.53c0 0.239-0.14 0.458-0.379 0.558-0.219 0.1-0.478 0.040-0.657-0.139l-4.164-4.243-8.387 8.507 0.179 0.179h1.295c0.159 0 0.319 0.060 0.418 0.179 0.12 0.12 0.179 0.259 0.179 0.418v7.989h-0.020z"></path>
<path fill="#ff9c08" style="fill: var(--color3, #ff9c08)" d="M16.877 17.453h3.845v3.905h-3.845v-3.905z"></path>
<path fill="#fff" style="fill: var(--color2, #fff)" d="M13.192 18.629c-0.206 0-0.404 0.082-0.549 0.228s-0.228 0.343-0.228 0.549c0 0.206 0.082 0.404 0.228 0.549s0.343 0.228 0.549 0.228c0.206 0 0.404-0.082 0.549-0.228s0.228-0.343 0.228-0.549c0-0.206-0.082-0.404-0.228-0.549s-0.343-0.228-0.549-0.228z"></path>
</symbol>
<symbol id="heart" viewBox="0 0 32 32">
<path fill="#fff3e0" style="fill: var(--color1, #fff3e0)" d="M16 32c8.836 0 16-7.164 16-16s-7.164-16-16-16c-8.837 0-16 7.163-16 16s7.163 16 16 16z"></path>
<path fill="#ff9c08" style="fill: var(--color3, #ff9c08)" d="M19.603 9.986c-0.001 0-0.002 0-0.004 0s-0.001 0-0.001 0-0.001 0-0.001 0c-0.263 0-0.526 0.023-0.784 0.065-0.184 0.030-0.364 0.071-0.541 0.121 1.999 0.574 3.474 2.349 3.474 4.487 0 1.459-0.707 2.029-1.778 3.602l-3.966 5.106 6.656-5.106c1.071-0.866 1.778-2.143 1.778-3.602 0-2.599-2.188-4.673-4.832-4.673z"></path>
<path fill="#ff9c08" style="fill: var(--color3, #ff9c08); stroke: var(--color4, #090909)" stroke="#090909" stroke-linejoin="miter" stroke-linecap="butt" stroke-miterlimit="4" stroke-width="0.9302" d="M16.009 10.917c-0.924-0.871-2.203-1.396-3.609-1.396-2.934 0-5.298 2.292-5.298 5.138 0 1.637 0.806 3.116 2.077 4.064l6.823 5.23 6.94-5.324c1.204-0.928 1.959-2.361 1.959-3.97 0-2.873-2.414-5.138-5.297-5.138-1.372 0-2.645 0.529-3.595 1.396z"></path>
<path fill="#fff" style="fill: var(--color2, #fff)" d="M12.4 11.377c-1.869 0-3.374 1.482-3.374 3.282 0 0.388 0.296 0.684 0.684 0.684s0.684-0.296 0.684-0.684c0-1.049 0.912-1.915 2.006-1.915 0.388 0 0.684-0.296 0.684-0.684s-0.296-0.684-0.684-0.684z"></path>
</symbol>
<symbol id="basket" viewBox="0 0 32 32">
<path fill="#fff3e0" style="fill: var(--color1, #fff3e0)" d="M16 32c8.836 0 16-7.164 16-16s-7.164-16-16-16c-8.837 0-16 7.163-16 16s7.163 16 16 16z"></path>
<path fill="#f08200" style="fill: var(--color5, #f08200)" d="M23.067 13.292v-2.401c0-1.879-1.511-3.39-3.39-3.39s-3.39 1.511-3.39 3.39v2.401z"></path>
<path fill="#ff9c08" style="fill: var(--color3, #ff9c08)" d="M14.732 19.649c2.731 0 4.944-2.213 4.944-4.944s-2.213-4.944-4.944-4.944c-2.731 0-4.944 2.213-4.944 4.944s2.214 4.944 4.944 4.944z"></path>
<path fill="#fff" style="fill: var(--color2, #fff)" d="M24.479 13.151h-16.951l1.257 10.058c0.085 0.706 0.692 1.243 1.398 1.243h11.626c0.706 0 1.314-0.537 1.398-1.243l1.271-10.058z"></path>
<path fill="#090909" style="fill: var(--color4, #090909)" d="M11.766 22.050c-0.212 0-0.396-0.155-0.424-0.367l-0.706-5.65c-0.028-0.226 0.141-0.438 0.367-0.466s0.438 0.141 0.466 0.367l0.706 5.65c0.028 0.226-0.141 0.438-0.367 0.466-0.014 0-0.028 0-0.042 0z"></path>
<path fill="#090909" style="fill: var(--color4, #090909)" d="M14.591 22.050c-0.24 0-0.424-0.184-0.424-0.424v-5.65c0-0.24 0.184-0.424 0.424-0.424s0.424 0.184 0.424 0.424v5.65c0 0.24-0.184 0.424-0.424 0.424z"></path>
<path fill="#090909" style="fill: var(--color4, #090909)" d="M17.416 22.050c-0.24 0-0.424-0.184-0.424-0.424v-5.65c0-0.24 0.184-0.424 0.424-0.424s0.424 0.184 0.424 0.424v5.65c0 0.24-0.184 0.424-0.424 0.424z"></path>
<path fill="#090909" style="fill: var(--color4, #090909)" d="M20.241 22.050c-0.014 0-0.028 0-0.057 0-0.226-0.028-0.395-0.24-0.367-0.466l0.706-5.65c0.028-0.226 0.24-0.396 0.466-0.367s0.396 0.24 0.367 0.466l-0.706 5.65c-0.014 0.212-0.198 0.367-0.41 0.367z"></path>
<path fill="#ff9c08" style="fill: var(--color3, #ff9c08)" d="M11.060 11.032h-1.13c-1.328 0-2.401-1.074-2.401-2.401v-1.13h1.13c1.328 0 2.401 1.074 2.401 2.401v1.13z"></path>
<path fill="#090909" style="fill: var(--color4, #090909)" d="M24.79 12.869c-0.085-0.085-0.198-0.141-0.311-0.141h-0.989v-1.836c0-2.105-1.709-3.814-3.814-3.814-0.932 0-1.836 0.339-2.528 0.961-0.169 0.155-0.184 0.424-0.028 0.593s0.424 0.184 0.593 0.028c0.537-0.466 1.229-0.735 1.963-0.735 1.286 0 2.387 0.833 2.797 1.978l-1.738 1.455c-0.184 0.155-0.198 0.424-0.057 0.593 0.085 0.099 0.198 0.155 0.325 0.155 0.099 0 0.198-0.028 0.268-0.099l1.356-1.144c0 0.014 0 0.014 0 0.028v1.836h-12.106c0.763-1.554 2.317-2.543 4.068-2.543 0.24 0 0.424-0.184 0.424-0.424s-0.184-0.424-0.424-0.424c-1.144 0-2.218 0.353-3.108 0.989v-0.424c0-1.554-1.271-2.825-2.825-2.825h-1.13c-0.24 0-0.424 0.184-0.424 0.424v1.13c0 1.554 1.271 2.825 2.825 2.825h0.381c-0.283 0.381-0.537 0.805-0.72 1.271h-2.062c-0.127 0-0.24 0.056-0.311 0.141s-0.127 0.212-0.113 0.339l1.257 10.058c0.113 0.918 0.904 1.61 1.822 1.61h11.626c0.918 0 1.709-0.692 1.822-1.61l1.257-10.058c0.028-0.127-0.014-0.24-0.099-0.339zM7.952 8.631v-0.706h0.706c1.088 0 1.978 0.89 1.978 1.978v0.706h-0.706c-1.088 0-1.978-0.89-1.978-1.978zM22.798 23.166c-0.057 0.494-0.48 0.862-0.975 0.862h-11.64c-0.494 0-0.918-0.367-0.975-0.862l-1.201-9.591h15.991l-1.201 9.591z"></path>
</symbol>
<symbol id="tree" viewBox="0 0 32 32">
<path fill="#fff3e0" style="fill: var(--color1, #fff3e0)" d="M16 32c8.836 0 16-7.164 16-16s-7.164-16-16-16c-8.837 0-16 7.163-16 16s7.163 16 16 16z"></path>
<path fill="#ff9c08" style="fill: var(--color3, #ff9c08)" d="M20.017 12.338c0.295-0.551 0.473-1.201 0.473-1.89 0-2.225-1.791-4.016-3.977-4.016s-3.977 1.791-3.977 4.016c0 0.098 0 0.177 0.020 0.276-2.047 0.689-3.504 2.638-3.504 4.941 0 2.874 2.323 5.217 5.178 5.217h4.292c2.422 0 4.37-1.969 4.37-4.41-0.020-1.89-1.201-3.504-2.874-4.134z"></path>
<path fill="#fff" style="fill: var(--color2, #fff)" d="M15.961 11.472c-0.335 0-0.591 0.256-0.591 0.591v2.677l-2.323-1.181c-0.079-0.039-0.177-0.059-0.276-0.059-0.217 0-0.413 0.118-0.512 0.315-0.138 0.295-0.039 0.65 0.256 0.787l2.835 1.476v3.169c0 0.335 0.256 0.591 0.591 0.591s0.591-0.256 0.591-0.591v-0.354l2.855-1.437c0.295-0.157 0.413-0.512 0.276-0.807-0.098-0.197-0.295-0.335-0.512-0.335-0.098 0-0.177 0.020-0.276 0.079l-2.323 1.181v-5.512c0-0.335-0.256-0.591-0.591-0.591z"></path>
<path fill="#090909" style="fill: var(--color4, #090909)" d="M18.481 21.492h-4.292c-3.17 0-5.768-2.599-5.768-5.807 0-2.343 1.398-4.429 3.504-5.335 0.079-2.5 2.087-4.489 4.567-4.489 2.52 0 4.567 2.067 4.567 4.607 0 0.532-0.099 1.083-0.276 1.575 1.614 0.847 2.658 2.559 2.658 4.429 0.020 2.776-2.205 5.020-4.961 5.020zM16.493 7.043c-1.87 0-3.386 1.536-3.386 3.425 0 0.079 0 0.158 0 0.236 0.020 0.276-0.138 0.512-0.394 0.591-1.87 0.63-3.111 2.402-3.111 4.37 0 2.559 2.047 4.626 4.587 4.626h4.292c2.087 0 3.78-1.713 3.78-3.819 0-1.595-0.984-3.032-2.461-3.583-0.157-0.059-0.276-0.177-0.354-0.335-0.059-0.158-0.059-0.335 0.039-0.492 0.256-0.492 0.394-1.043 0.394-1.614 0-1.87-1.516-3.406-3.386-3.406zM15.942 26.139c-0.335 0-0.591-0.256-0.591-0.591v-3.051c0-0.335 0.256-0.59 0.591-0.59s0.591 0.256 0.591 0.59v3.051c0 0.335-0.256 0.591-0.591 0.591z"></path>
</symbol>
<symbol id="edu" viewBox="0 0 32 32">
<path fill="#fff3e0" style="fill: var(--color1, #fff3e0)" d="M16 32c8.836 0 16-7.164 16-16s-7.164-16-16-16c-8.837 0-16 7.163-16 16s7.163 16 16 16z"></path>
<path fill="#ff9c08" style="fill: var(--color3, #ff9c08)" d="M16.827 17.265c-0.512 0.192-1.088 0.192-1.616 0l-8.033-3.104c-0.544-0.208-0.544-0.992 0-1.2l8.049-3.088c0.512-0.192 1.088-0.192 1.616 0l8.049 3.088c0.288 0.112 0.448 0.368 0.432 0.624v0.336l-8.497 3.344z"></path>
<path fill="#090909" style="fill: var(--color4, #090909)" d="M25.052 12.528l-8.049-3.104c-0.624-0.24-1.328-0.24-1.952 0l-8.049 3.104c-0.432 0.16-0.72 0.576-0.72 1.040s0.288 0.88 0.72 1.040l2.144 0.832v3.729c0 3.264 3.68 3.68 6.881 3.68s6.881-0.416 6.881-3.68v-3.12c0-0.368-0.176-0.72-0.48-0.928s-0.688-0.256-1.040-0.128l-4.737 1.824c-0.4 0.16-0.864 0.16-1.264 0l-8.033-3.104c-0.080-0.032-0.096-0.096-0.096-0.144s0.016-0.112 0.096-0.144l8.049-3.088c0.4-0.16 0.864-0.16 1.264 0l8.049 3.088c0.096 0.032 0.128 0.112 0.128 0.16 0 0.016 0 0.016 0 0.032v2.352c0 0.272 0.208 0.48 0.48 0.48s0.48-0.208 0.48-0.48v-2.352c0-0.48-0.288-0.912-0.752-1.088z"></path>
<path fill="#090909" style="fill: var(--color4, #090909)" d="M25.308 19.649c-0.272 0-0.48-0.208-0.48-0.48v-0.8c0-0.272 0.208-0.48 0.48-0.48s0.48 0.208 0.48 0.48v0.8c0 0.272-0.208 0.48-0.48 0.48z"></path>
<path fill="#fff" style="fill: var(--color2, #fff); stroke: var(--color4, #090909)" stroke="#090909" stroke-linejoin="miter" stroke-linecap="butt" stroke-miterlimit="4" stroke-width="0.9302" d="M9.388 15.117l-0.619-0.246-0.017 0.666-0.095 3.697-0 0.003-0 0.003c-0.022 1.675 0.575 2.642 1.069 2.984 0.525 0.556 1.396 0.954 2.39 1.211 1.038 0.268 2.279 0.399 3.566 0.363h0.005c1.875-0.071 3.024-0.303 3.806-0.578 0.559-0.196 0.959-0.434 1.232-0.596 0.095-0.056 0.174-0.104 0.24-0.137l0.047-0.024 0.041-0.034c0.679-0.567 1.040-1.048 1.227-1.516 0.148-0.369 0.175-0.719 0.197-0.988 0.005-0.059 0.009-0.115 0.015-0.165l0.003-0.025-0-0.025c-0.001-0.506-0.017-1.513-0.031-2.383-0.004-0.261-0.008-0.509-0.011-0.728-0.011-0.716-0.737-1.213-1.409-0.956l-5.086 1.947c-0.109 0.042-0.229 0.041-0.338-0.002l-6.229-2.472z"></path>
</symbol>
<symbol id="med" viewBox="0 0 32 32">
<path fill="#fff3e0" style="fill: var(--color1, #fff3e0)" d="M16 32c8.836 0 16-7.164 16-16s-7.164-16-16-16c-8.837 0-16 7.163-16 16s7.163 16 16 16z"></path>
<path fill="#ff9c08" style="fill: var(--color3, #ff9c08)" d="M23.249 23.969h-14.608c-0.893 0-1.623-0.73-1.623-1.623v-9.739c0-0.893 0.73-1.623 1.623-1.623h14.608c0.893 0 1.623 0.73 1.623 1.623v9.739c0 0.893-0.73 1.623-1.623 1.623z"></path>
<path fill="#090909" style="fill: var(--color4, #090909)" d="M23.249 24.456h-14.608c-1.169 0-2.11-0.941-2.11-2.11v-9.738c0-1.169 0.941-2.11 2.11-2.11h14.608c1.169 0 2.11 0.941 2.11 2.11v9.738c0 1.169-0.941 2.11-2.11 2.11zM8.641 11.472c-0.633 0-1.136 0.503-1.136 1.136v9.738c0 0.633 0.503 1.136 1.136 1.136h14.608c0.633 0 1.136-0.503 1.136-1.136v-9.738c0-0.633-0.503-1.136-1.136-1.136h-14.608z"></path>
<path fill="#090909" style="fill: var(--color4, #090909)" d="M19.191 11.472c-0.276 0-0.487-0.211-0.487-0.487 0-1.428-1.169-2.597-2.597-2.597h-0.325c-0.828 0-1.574 0.373-2.078 1.039-0.162 0.211-0.471 0.26-0.682 0.097s-0.26-0.471-0.097-0.682c0.682-0.909 1.72-1.428 2.857-1.428h0.325c1.964 0 3.571 1.607 3.571 3.571 0 0.276-0.211 0.487-0.487 0.487z"></path>
<path fill="#fff" style="fill: var(--color2, #fff)" d="M18.867 16.341h-1.785v-1.785c0-0.276-0.211-0.487-0.487-0.487h-1.298c-0.276 0-0.487 0.211-0.487 0.487v1.785h-1.785c-0.276 0-0.487 0.211-0.487 0.487v1.298c0 0.276 0.211 0.487 0.487 0.487h1.785v1.785c0 0.276 0.211 0.487 0.487 0.487h1.298c0.276 0 0.487-0.211 0.487-0.487v-1.785h1.785c0.276 0 0.487-0.211 0.487-0.487v-1.298c0-0.276-0.211-0.487-0.487-0.487z"></path>
</symbol>
<symbol id="result-edu" viewBox="0 0 32 32">
<path fill="#fff3e0" style="fill: var(--color1, #fff3e0)" d="M16 32c8.837 0 16-7.163 16-16s-7.163-16-16-16c-8.837 0-16 7.163-16 16s7.163 16 16 16z"></path>
<path fill="#fff" style="fill: var(--color2, #fff)" d="M23.512 14.4v5.129c0 0.602-0.274 1.186-0.73 1.57-3.815 3.066-9.419 3.158-13.142 0.018-0.456-0.402-0.73-0.986-0.73-1.588v-5.166z"></path>
<path fill="#ff9c08" style="fill: var(--color3, #ff9c08)" d="M6.172 13.14l10.222 4.563 9.857-4.563-9.857-4.563-10.222 4.563z"></path>
<path fill="#090909" style="fill: var(--color4, #090909)" d="M16.12 23.964c-2.464 0-4.91-0.803-6.827-2.428-0.584-0.493-0.913-1.223-0.913-2.008v-5.166c0-0.31 0.237-0.548 0.548-0.548s0.548 0.237 0.548 0.548v5.166c0 0.456 0.201 0.876 0.529 1.168 3.45 2.921 8.798 2.902 12.449-0.018 0.347-0.274 0.529-0.694 0.529-1.15v-5.129c0-0.31 0.237-0.548 0.548-0.548s0.548 0.237 0.548 0.548v5.129c0 0.785-0.347 1.515-0.949 1.99-2.044 1.643-4.545 2.446-7.009 2.446z"></path>
<path fill="#090909" style="fill: var(--color4, #090909)" d="M16.394 18.251c-0.073 0-0.146-0.018-0.219-0.055l-10.222-4.563c-0.201-0.073-0.329-0.274-0.329-0.493s0.128-0.42 0.329-0.493l10.222-4.563c0.146-0.073 0.31-0.055 0.456 0l9.857 4.563c0.201 0.091 0.31 0.292 0.31 0.493s-0.128 0.402-0.31 0.493l-9.857 4.563c-0.073 0.037-0.164 0.055-0.237 0.055zM7.523 13.14l8.871 3.961 8.561-3.961-8.561-3.961-8.871 3.961zM26.25 18.963c-0.31 0-0.548-0.237-0.548-0.548v-3.45c0-0.31 0.237-0.548 0.548-0.548s0.548 0.237 0.548 0.548v3.45c0 0.292-0.237 0.548-0.548 0.548z"></path>
</symbol>
<symbol id="result-ball" viewBox="0 0 32 32">
<path fill="#fff3e0" style="fill: var(--color1, #fff3e0)" d="M16 32c8.837 0 16-7.163 16-16s-7.163-16-16-16c-8.837 0-16 7.163-16 16s7.163 16 16 16z"></path>
<path fill="#fff" style="fill: var(--color2, #fff)" d="M22.4 23.627c4.212-3.535 4.762-9.815 1.227-14.027s-9.815-4.762-14.027-1.227c-4.212 3.535-4.762 9.815-1.227 14.027s9.815 4.762 14.027 1.227z"></path>
<path fill="#ff9c08" style="fill: var(--color3, #ff9c08)" d="M17.455 6.178c-2.010 1.494-3.6 3.676-4.385 6.357 3.178-2.662 7.008-3.753 10.129-3.159l-0.038-0.038c-1.36-1.819-3.427-2.968-5.706-3.159z"></path>
<path fill="#ff9c08" style="fill: var(--color3, #ff9c08)" d="M8.762 18.911c0.651-2.413 2.125-4.691 4.327-6.395-1.321 3.906-0.555 10.569 1.13 13.269-2.298-0.536-4.404-1.742-6.031-3.466l-0.191-0.192 0.766-3.217z"></path>
<path fill="#ff9c08" style="fill: var(--color3, #ff9c08)" d="M9.605 8.38c-2.049 1.474-3.332 3.772-3.466 6.28l6.797-2.279-3.332-4.002z"></path>
<path fill="#ff9c08" style="fill: var(--color3, #ff9c08)" d="M25.803 16.058c-3.159-2.298-8.425-4.021-12.733-3.542l-0.134-0.134 9.459 11.24 0.555-0.555c1.876-1.838 2.91-4.385 2.853-7.008z"></path>
<path fill="#090909" style="fill: var(--color4, #090909)" d="M13.262 23.296c-0.249 0-0.479-0.172-0.555-0.421-0.996-3.581-1.053-7.525-0.172-10.512 0.44-1.532 1.149-2.93 2.087-4.174 0.191-0.249 0.555-0.306 0.804-0.115s0.306 0.555 0.115 0.804c-0.862 1.13-1.494 2.413-1.896 3.791-0.823 2.796-0.747 6.491 0.191 9.88 0.077 0.306-0.096 0.613-0.402 0.708-0.077 0.038-0.115 0.038-0.172 0.038z"></path>
<path fill="#090909" style="fill: var(--color4, #090909)" d="M24.061 9.222c-3.734-4.442-10.378-5.017-14.839-1.283-2.144 1.8-3.466 4.346-3.715 7.142s0.613 5.534 2.432 7.678c1.8 2.164 4.346 3.485 7.142 3.715 0.306 0.019 0.632 0.038 0.938 0.038 2.47 0 4.844-0.862 6.759-2.47 2.164-1.8 3.485-4.346 3.715-7.142s-0.613-5.514-2.432-7.678zM25.325 15.043c-2.987-1.896-6.931-3.083-10.397-3.159 2.623-1.704 5.572-2.413 8.176-1.934 0.019 0 0.038 0 0.057 0 0 0.019 0.019 0.019 0.019 0.038 1.264 1.474 1.972 3.236 2.145 5.055zM22.453 22.798l-4.844-5.783c-0.211-0.249-0.574-0.268-0.804-0.077-0.249 0.211-0.268 0.574-0.077 0.804l4.844 5.782c-1.838 1.36-4.098 2.010-6.395 1.8-2.489-0.211-4.768-1.398-6.376-3.313 0-0.019-0.019-0.019-0.019-0.038s0-0.057 0-0.077c0-1.494 0.402-3.102 1.168-4.634 0.153-0.287 0.038-0.632-0.249-0.766s-0.632-0.038-0.766 0.249c-0.613 1.225-1.015 2.47-1.187 3.715-0.881-1.608-1.264-3.427-1.091-5.285 0.211-2.489 1.398-4.768 3.313-6.376 1.762-1.455 3.887-2.183 6.031-2.183 2.087 0 4.136 0.689 5.84 2.030-3.025-0.096-6.28 1.091-8.999 3.332-1.704 0.211-3.293 0.728-4.749 1.551-0.268 0.153-0.383 0.498-0.211 0.785 0.153 0.268 0.498 0.383 0.785 0.211 1.379-0.766 2.891-1.264 4.5-1.436 4.289-0.479 9.363 1.321 12.216 3.351-0.134 2.355-1.111 4.653-2.93 6.357z"></path>
<path fill="#090909" style="fill: var(--color4, #090909)" d="M11.711 11.482c-0.172 0-0.326-0.077-0.44-0.211l-0.881-1.072c-0.191-0.249-0.172-0.613 0.077-0.804s0.613-0.172 0.804 0.077l0.881 1.072c0.191 0.249 0.172 0.613-0.077 0.804-0.115 0.096-0.23 0.134-0.364 0.134z"></path>
<path fill="#fff" style="fill: var(--color2, #fff)" d="M14.167 13.85c0.81-0.68 0.916-1.887 0.236-2.698s-1.887-0.916-2.698-0.236c-0.81 0.68-0.916 1.887-0.236 2.698s1.887 0.916 2.698 0.236z"></path>
<path fill="#090909" style="fill: var(--color4, #090909)" d="M12.936 14.871c-0.077 0-0.153 0-0.23-0.019-0.67-0.057-1.264-0.364-1.685-0.881s-0.632-1.149-0.574-1.819 0.364-1.264 0.881-1.685c0.517-0.421 1.149-0.632 1.819-0.574s1.264 0.364 1.685 0.881c0.881 1.053 0.747 2.623-0.306 3.504-0.44 0.383-0.996 0.594-1.589 0.594zM12.936 11.041c-0.306 0-0.613 0.115-0.862 0.306-0.268 0.23-0.44 0.555-0.479 0.919s0.077 0.708 0.306 0.976c0.479 0.574 1.321 0.632 1.896 0.172 0.574-0.479 0.632-1.321 0.172-1.896-0.23-0.268-0.555-0.44-0.919-0.479-0.038 0-0.077 0-0.115 0z"></path>
</symbol>
<symbol id="result-handheart" viewBox="0 0 32 32">
<path fill="#fff3e0" style="fill: var(--color1, #fff3e0)" d="M16 32c8.837 0 16-7.163 16-16s-7.163-16-16-16c-8.837 0-16 7.163-16 16s7.163 16 16 16z"></path>
<path fill="#ff9c08" style="fill: var(--color3, #ff9c08); stroke: var(--color4, #090909)" stroke="#090909" stroke-linejoin="round" stroke-linecap="round" stroke-miterlimit="4" stroke-width="1.2632" d="M17.030 16.11c-0.107 0.109-0.235 0.195-0.375 0.254s-0.292 0.089-0.444 0.089c-0.152 0-0.303-0.030-0.444-0.089s-0.268-0.145-0.375-0.254l-4.085-4.143c-0.428-0.412-0.712-0.95-0.81-1.536s-0.004-1.187 0.266-1.715c0.215-0.402 0.52-0.749 0.892-1.013s0.799-0.439 1.25-0.51c0.45-0.071 0.911-0.036 1.346 0.101s0.832 0.373 1.16 0.69l0.8 0.778 0.801-0.778c0.328-0.317 0.725-0.553 1.16-0.69s0.895-0.172 1.346-0.101c0.45 0.071 0.878 0.245 1.25 0.51s0.677 0.611 0.892 1.013c0.271 0.529 0.365 1.131 0.267 1.717s-0.382 1.125-0.811 1.537l-4.085 4.14z"></path>
<path fill="#fff" style="fill: var(--color2, #fff)" d="M8.078 21.023l5.504-0.112 0.13 3.996c0 0-0.919-0.413-1.89-0.413s-2.042 0.543-2.042 0.543l-1.703-4.014z"></path>
<path fill="#fff" style="fill: var(--color2, #fff)" d="M9.881 24.421l-1.545-1.827c-0.49-0.612-0.756-1.373-0.756-2.157v-3.968c0-0.305 0.121-0.598 0.337-0.814s0.509-0.337 0.814-0.337 0.598 0.121 0.814 0.337c0.216 0.216 0.337 0.509 0.337 0.814v2.877z"></path>
<path fill="none" stroke="#090909" style="stroke: var(--color4, #090909)" stroke-linejoin="round" stroke-linecap="round" stroke-miterlimit="4" stroke-width="1.2632" d="M9.881 24.421l-1.545-1.827c-0.49-0.612-0.756-1.373-0.756-2.157v-3.968c0-0.305 0.121-0.598 0.337-0.814s0.509-0.337 0.814-0.337 0.598 0.121 0.814 0.337c0.216 0.216 0.337 0.509 0.337 0.814v2.877"></path>
<path fill="#fff" style="fill: var(--color2, #fff)" d="M13.333 24.421v-2.302c0-0.683-0.202-1.35-0.581-1.918l-0.876-1.312c-0.075-0.124-0.175-0.232-0.293-0.317s-0.252-0.145-0.394-0.176c-0.142-0.032-0.288-0.034-0.431-0.007s-0.279 0.082-0.399 0.163c-0.217 0.145-0.373 0.364-0.44 0.617s-0.040 0.52 0.076 0.754l1.037 1.726z"></path>
<path fill="none" stroke="#090909" style="stroke: var(--color4, #090909)" stroke-linejoin="round" stroke-linecap="round" stroke-miterlimit="4" stroke-width="1.2632" d="M13.333 24.421v-2.302c0-0.683-0.202-1.35-0.581-1.918l-0.876-1.312c-0.075-0.124-0.175-0.232-0.293-0.317s-0.252-0.145-0.394-0.176c-0.142-0.032-0.288-0.034-0.431-0.007s-0.279 0.082-0.399 0.163c-0.217 0.145-0.373 0.364-0.44 0.617s-0.040 0.52 0.076 0.754l1.037 1.726"></path>
<path fill="#fff" style="fill: var(--color2, #fff)" d="M22.54 24.421l1.545-1.827c0.49-0.612 0.756-1.373 0.756-2.157v-3.968c0-0.305-0.121-0.598-0.337-0.814s-0.509-0.337-0.814-0.337c-0.305 0-0.598 0.121-0.814 0.337s-0.337 0.509-0.337 0.814v2.877z"></path>
<path fill="none" stroke="#090909" style="stroke: var(--color4, #090909)" stroke-linejoin="round" stroke-linecap="round" stroke-miterlimit="4" stroke-width="1.2632" d="M22.54 24.421l1.545-1.827c0.49-0.612 0.756-1.373 0.756-2.157v-3.968c0-0.305-0.121-0.598-0.337-0.814s-0.509-0.337-0.814-0.337c-0.305 0-0.598 0.121-0.814 0.337s-0.337 0.509-0.337 0.814v2.877"></path>
<path fill="#fff" style="fill: var(--color2, #fff)" d="M19.087 24.421v-2.302c-0-0.683 0.202-1.35 0.581-1.918l0.876-1.314c0.075-0.125 0.174-0.233 0.292-0.318s0.252-0.146 0.393-0.177c0.142-0.032 0.289-0.035 0.432-0.008s0.279 0.082 0.4 0.162c0.218 0.145 0.375 0.365 0.443 0.618s0.040 0.522-0.077 0.756l-1.037 1.726z"></path>
<path fill="none" stroke="#090909" style="stroke: var(--color4, #090909)" stroke-linejoin="round" stroke-linecap="round" stroke-miterlimit="4" stroke-width="1.2632" d="M19.087 24.421v-2.302c-0-0.683 0.202-1.35 0.581-1.918l0.876-1.314c0.075-0.125 0.174-0.233 0.292-0.318s0.252-0.146 0.393-0.177c0.142-0.032 0.289-0.035 0.432-0.008s0.279 0.082 0.4 0.162c0.218 0.145 0.375 0.365 0.443 0.618s0.040 0.522-0.077 0.756l-1.037 1.726"></path>
</symbol>
<symbol id="result-heart" viewBox="0 0 32 32">
<path fill="#fff3e0" style="fill: var(--color1, #fff3e0)" d="M16 32c8.837 0 16-7.163 16-16s-7.163-16-16-16c-8.837 0-16 7.163-16 16s7.163 16 16 16z"></path>
<path fill="#ff9c08" style="fill: var(--color3, #ff9c08)" d="M19.072 9.4c-0.001 0-0.002 0-0.003 0s-0.001 0-0.001 0-0.001 0-0.001 0c-0.255 0-0.51 0.023-0.76 0.063-0.178 0.029-0.353 0.069-0.525 0.118 1.938 0.557 3.369 2.278 3.369 4.351 0 1.415-0.685 1.967-1.724 3.493l-3.846 4.951 6.455-4.952c1.039-0.84 1.724-2.078 1.724-3.493 0-2.52-2.122-4.532-4.686-4.532z"></path>
<path fill="#ff9c08" style="fill: var(--color3, #ff9c08)" d="M12.086 9.4c1.415 0 2.675 0.597 3.493 1.547 0.862-0.951 2.122-1.547 3.493-1.547 2.564 0 4.686 2.012 4.686 4.532 0 1.415-0.663 2.675-1.724 3.493l-6.455 4.951-6.344-4.863c-1.127-0.84-1.835-2.144-1.835-3.581 0-2.498 2.078-4.532 4.686-4.532z"></path>
<path fill="#fff" style="fill: var(--color2, #fff)" d="M12.086 10.749c-1.813 0-3.272 1.437-3.272 3.183 0 0.376 0.287 0.663 0.663 0.663s0.663-0.287 0.663-0.663c0-1.017 0.884-1.857 1.945-1.857 0.376 0 0.663-0.287 0.663-0.663s-0.287-0.663-0.663-0.663z"></path>
<path fill="#090909" style="fill: var(--color4, #090909)" d="M15.579 23.039c-0.133 0-0.287-0.044-0.398-0.133l-6.344-4.863c-1.326-0.973-2.1-2.476-2.1-4.112 0-2.874 2.409-5.195 5.349-5.195 1.304 0 2.564 0.464 3.493 1.282 0.973-0.818 2.211-1.282 3.493-1.282 2.94 0 5.349 2.321 5.349 5.195 0 1.547-0.707 3.028-1.967 4.023l-6.477 4.952c-0.111 0.088-0.265 0.133-0.398 0.133zM12.086 10.064c-2.211 0-4.023 1.746-4.023 3.868 0 1.216 0.575 2.321 1.569 3.051l5.946 4.576 6.057-4.642c0.928-0.729 1.459-1.813 1.459-2.962 0-2.144-1.813-3.868-4.023-3.868-1.149 0-2.233 0.486-3.006 1.326-0.133 0.133-0.309 0.221-0.486 0.221-0.199 0-0.376-0.088-0.486-0.221-0.752-0.862-1.835-1.348-3.006-1.348z"></path>
</symbol>
<symbol id="check" viewBox="0 0 43 32">
<path fill="none" stroke="#fff" style="stroke: var(--color2, #fff)" stroke-linejoin="round" stroke-linecap="round" stroke-miterlimit="4" stroke-width="6.6667" d="M5.645 18.242l10.355 9.759 21.022-23.206"></path>
</symbol>
<symbol id="basket1" viewBox="0 0 30 32">
<path fill="#090909" style="fill: var(--color4, #090909)" d="M10.966 6.945c0.011-0 0.022-0.001 0.033-0.001h14.573c0.011 0 0.022 0 0.033 0.001 0.63 0.026 1.229 0.285 1.679 0.728 0.438 0.431 0.705 1.006 0.752 1.618l2.304 13.643c0.001 0.007 0.002 0.014 0.003 0.022 0.050 0.354 0.026 0.715-0.071 1.059s-0.264 0.665-0.492 0.941-0.51 0.502-0.829 0.663c-0.319 0.161-0.669 0.254-1.026 0.273-0.014 0.001-0.029 0.001-0.043 0.001h-19.193c-0.014 0-0.028-0-0.043-0.001-0.357-0.019-0.707-0.112-1.026-0.273s-0.602-0.387-0.829-0.663-0.395-0.597-0.492-0.941c-0.097-0.344-0.121-0.705-0.071-1.059 0.001-0.007 0.002-0.014 0.003-0.022l2.304-13.643c0.047-0.612 0.314-1.187 0.752-1.618 0.45-0.443 1.048-0.702 1.679-0.728zM11.018 8.562c-0.224 0.013-0.436 0.106-0.596 0.264-0.164 0.161-0.261 0.377-0.274 0.606-0.002 0.030-0.005 0.059-0.010 0.088l-2.309 13.67c-0.017 0.129-0.008 0.261 0.028 0.386 0.036 0.128 0.099 0.248 0.183 0.351s0.19 0.187 0.309 0.247c0.114 0.057 0.238 0.092 0.365 0.101h19.143c0.127-0.009 0.251-0.043 0.365-0.101 0.119-0.060 0.224-0.144 0.309-0.247s0.147-0.223 0.183-0.351c0.035-0.125 0.045-0.257 0.028-0.386l-2.309-13.67c-0.005-0.029-0.008-0.059-0.010-0.088-0.013-0.229-0.111-0.445-0.274-0.606-0.16-0.158-0.372-0.251-0.596-0.264h-14.535z"></path>
<path fill="#090909" style="fill: var(--color4, #090909)" d="M18.288 0.012c1.197 0.004 2.356 0.424 3.277 1.188s1.548 1.825 1.773 3.001c0.084 0.439-0.204 0.862-0.643 0.946s-0.862-0.204-0.946-0.643c-0.154-0.807-0.584-1.535-1.217-2.060s-1.426-0.812-2.247-0.815c-0.818 0.003-1.609 0.289-2.24 0.809s-1.063 1.245-1.221 2.048c-0.086 0.438-0.511 0.724-0.95 0.638s-0.724-0.511-0.638-0.95c0.23-1.17 0.858-2.225 1.778-2.984s2.074-1.176 3.267-1.179l0.002 0.809 0.002-0.809z"></path>
<path fill="#ff9c08" style="fill: var(--color3, #ff9c08)" d="M0 15.238h16.762v16.762h-16.762v-16.762z"></path>
<path fill="#fff" style="fill: var(--color2, #fff)" d="M8.765 26.014c-0.567 0-1.058-0.137-1.472-0.411-0.408-0.28-0.722-0.667-0.942-1.161-0.219-0.5-0.329-1.079-0.329-1.737s0.11-1.234 0.329-1.728c0.219-0.5 0.533-0.887 0.942-1.161 0.414-0.28 0.905-0.421 1.472-0.421s1.054 0.14 1.463 0.421c0.408 0.274 0.722 0.661 0.942 1.161 0.219 0.494 0.329 1.070 0.329 1.728s-0.11 1.237-0.329 1.737c-0.219 0.494-0.533 0.881-0.942 1.161-0.408 0.274-0.896 0.411-1.463 0.411zM8.765 25.338c0.372 0 0.704-0.104 0.997-0.311 0.299-0.213 0.53-0.515 0.695-0.905 0.171-0.396 0.256-0.869 0.256-1.417s-0.085-1.018-0.256-1.408c-0.165-0.39-0.396-0.689-0.695-0.896-0.293-0.213-0.625-0.32-0.997-0.32-0.378 0-0.713 0.107-1.006 0.32-0.293 0.207-0.524 0.506-0.695 0.896s-0.256 0.859-0.256 1.408c0 0.549 0.085 1.021 0.256 1.417 0.171 0.39 0.402 0.692 0.695 0.905 0.293 0.207 0.628 0.311 1.006 0.311z"></path>
</symbol>
<symbol id="logo" viewBox="0 0 36 32">
<path fill="#ff9c08" style="fill: var(--color3, #ff9c08)" d="M34.456 6.333c-1.574-3.479-4.831-5.843-8.466-6.2-2.948-0.268-5.851 0.491-8.178 2.163-0.022 0.022-0.044 0.045-0.067 0.045-0.022-0.022-0.044-0.045-0.066-0.045-2.349-1.673-5.253-2.431-8.178-2.141-3.657 0.335-6.893 2.699-8.488 6.178-1.706 3.724-1.241 8.007 1.285 12.043 3.679 5.888 9.973 10.081 14.605 12.556l0.731 0.357v0.022h0.044l0.886-0.357c4.632-2.476 10.948-6.668 14.605-12.556 2.527-4.059 2.992-8.341 1.285-12.066zM30.156 16.257c-3.036 4.884-8.311 8.52-12.455 10.839v-0.067c-4.145-2.297-9.353-5.933-12.367-10.772-1.795-2.877-2.15-5.799-1.042-8.252 1.019-2.23 3.191-3.814 5.518-4.037 1.928-0.178 3.745 0.245 5.253 1.115-0.886 1.271-1.507 2.699-1.817 4.237-0.598 2.832-0.133 5.598 1.197 7.36 0.864 1.137 2.039 1.762 3.28 1.784 0 0 0 0 0.022 0 0 0 0 0 0.022 0 1.241 0 2.416-0.647 3.28-1.784 1.352-1.762 1.795-4.527 1.197-7.36-0.222-1.070-0.598-2.096-1.108-3.055-1.152 0.647-2.105 1.561-2.793 2.676 0.155 0.379 0.266 0.803 0.355 1.227 0.421 2.030 0 3.502-0.488 4.126-0.067 0.111-0.266 0.335-0.465 0.335s-0.377-0.245-0.465-0.335c-0.488-0.647-0.909-2.119-0.488-4.126 0.82-3.992 4.565-6.579 8.865-6.178 2.349 0.223 4.521 1.806 5.518 4.037 1.13 2.431 0.753 5.353-1.020 8.23z"></path>
</symbol>
<symbol id="google-plus" viewBox="0 0 32 32">
<path d="M10.181 14.294v3.494h5.775c-0.231 1.5-1.744 4.394-5.775 4.394-3.475 0-6.313-2.881-6.313-6.431s2.838-6.431 6.313-6.431c1.981 0 3.3 0.844 4.056 1.569l2.762-2.662c-1.775-1.656-4.075-2.662-6.819-2.662-5.631 0.006-10.181 4.556-10.181 10.188s4.55 10.181 10.181 10.181c5.875 0 9.775-4.131 9.775-9.95 0-0.669-0.075-1.181-0.163-1.688h-9.613z"></path>
<path d="M32 14h-3v-3h-3v3h-3v3h3v3h3v-3h3z"></path>
</symbol>
<symbol id="facebook" viewBox="0 0 32 32">
<path d="M19 6h5v-6h-5c-3.86 0-7 3.14-7 7v3h-4v6h4v16h6v-16h5l1-6h-6v-3c0-0.542 0.458-1 1-1z"></path>
</symbol>
<symbol id="instagram" viewBox="0 0 32 32">
<path d="M16 2.881c4.275 0 4.781 0.019 6.462 0.094 1.563 0.069 2.406 0.331 2.969 0.55 0.744 0.288 1.281 0.638 1.837 1.194 0.563 0.563 0.906 1.094 1.2 1.838 0.219 0.563 0.481 1.412 0.55 2.969 0.075 1.688 0.094 2.194 0.094 6.463s-0.019 4.781-0.094 6.463c-0.069 1.563-0.331 2.406-0.55 2.969-0.288 0.744-0.637 1.281-1.194 1.837-0.563 0.563-1.094 0.906-1.837 1.2-0.563 0.219-1.413 0.481-2.969 0.55-1.688 0.075-2.194 0.094-6.463 0.094s-4.781-0.019-6.463-0.094c-1.563-0.069-2.406-0.331-2.969-0.55-0.744-0.288-1.281-0.637-1.838-1.194-0.563-0.563-0.906-1.094-1.2-1.837-0.219-0.563-0.481-1.413-0.55-2.969-0.075-1.688-0.094-2.194-0.094-6.463s0.019-4.781 0.094-6.463c0.069-1.563 0.331-2.406 0.55-2.969 0.288-0.744 0.638-1.281 1.194-1.838 0.563-0.563 1.094-0.906 1.838-1.2 0.563-0.219 1.412-0.481 2.969-0.55 1.681-0.075 2.188-0.094 6.463-0.094zM16 0c-4.344 0-4.887 0.019-6.594 0.094-1.7 0.075-2.869 0.35-3.881 0.744-1.056 0.412-1.95 0.956-2.837 1.85-0.894 0.888-1.438 1.781-1.85 2.831-0.394 1.019-0.669 2.181-0.744 3.881-0.075 1.713-0.094 2.256-0.094 6.6s0.019 4.887 0.094 6.594c0.075 1.7 0.35 2.869 0.744 3.881 0.413 1.056 0.956 1.95 1.85 2.837 0.887 0.887 1.781 1.438 2.831 1.844 1.019 0.394 2.181 0.669 3.881 0.744 1.706 0.075 2.25 0.094 6.594 0.094s4.888-0.019 6.594-0.094c1.7-0.075 2.869-0.35 3.881-0.744 1.050-0.406 1.944-0.956 2.831-1.844s1.438-1.781 1.844-2.831c0.394-1.019 0.669-2.181 0.744-3.881 0.075-1.706 0.094-2.25 0.094-6.594s-0.019-4.887-0.094-6.594c-0.075-1.7-0.35-2.869-0.744-3.881-0.394-1.063-0.938-1.956-1.831-2.844-0.887-0.887-1.781-1.438-2.831-1.844-1.019-0.394-2.181-0.669-3.881-0.744-1.712-0.081-2.256-0.1-6.6-0.1v0z"></path>
<path d="M16 7.781c-4.537 0-8.219 3.681-8.219 8.219s3.681 8.219 8.219 8.219 8.219-3.681 8.219-8.219c0-4.537-3.681-8.219-8.219-8.219zM16 21.331c-2.944 0-5.331-2.387-5.331-5.331s2.387-5.331 5.331-5.331c2.944 0 5.331 2.387 5.331 5.331s-2.387 5.331-5.331 5.331z"></path>
<path d="M26.462 7.456c0 1.060-0.859 1.919-1.919 1.919s-1.919-0.859-1.919-1.919c0-1.060 0.859-1.919 1.919-1.919s1.919 0.859 1.919 1.919z"></path>
</symbol>
<symbol id="twitter" viewBox="0 0 32 32">
<path d="M32 7.075c-1.175 0.525-2.444 0.875-3.769 1.031 1.356-0.813 2.394-2.1 2.887-3.631-1.269 0.75-2.675 1.3-4.169 1.594-1.2-1.275-2.906-2.069-4.794-2.069-3.625 0-6.563 2.938-6.563 6.563 0 0.512 0.056 1.012 0.169 1.494-5.456-0.275-10.294-2.888-13.531-6.862-0.563 0.969-0.887 2.1-0.887 3.3 0 2.275 1.156 4.287 2.919 5.463-1.075-0.031-2.087-0.331-2.975-0.819 0 0.025 0 0.056 0 0.081 0 3.181 2.263 5.838 5.269 6.437-0.55 0.15-1.131 0.231-1.731 0.231-0.425 0-0.831-0.044-1.237-0.119 0.838 2.606 3.263 4.506 6.131 4.563-2.25 1.762-5.075 2.813-8.156 2.813-0.531 0-1.050-0.031-1.569-0.094 2.913 1.869 6.362 2.95 10.069 2.95 12.075 0 18.681-10.006 18.681-18.681 0-0.287-0.006-0.569-0.019-0.85 1.281-0.919 2.394-2.075 3.275-3.394z"></path>
</symbol>
<symbol id="rss" viewBox="0 0 32 32">
<path d="M4.259 23.467c-2.35 0-4.259 1.917-4.259 4.252 0 2.349 1.909 4.244 4.259 4.244 2.358 0 4.265-1.895 4.265-4.244-0-2.336-1.907-4.252-4.265-4.252zM0.005 10.873v6.133c3.993 0 7.749 1.562 10.577 4.391 2.825 2.822 4.384 6.595 4.384 10.603h6.16c-0-11.651-9.478-21.127-21.121-21.127zM0.012 0v6.136c14.243 0 25.836 11.604 25.836 25.864h6.152c0-17.64-14.352-32-31.988-32z"></path>
</symbol>
<symbol id="youtube" viewBox="0 0 32 32">
<path d="M31.681 9.6c0 0-0.313-2.206-1.275-3.175-1.219-1.275-2.581-1.281-3.206-1.356-4.475-0.325-11.194-0.325-11.194-0.325h-0.012c0 0-6.719 0-11.194 0.325-0.625 0.075-1.987 0.081-3.206 1.356-0.963 0.969-1.269 3.175-1.269 3.175s-0.319 2.588-0.319 5.181v2.425c0 2.587 0.319 5.181 0.319 5.181s0.313 2.206 1.269 3.175c1.219 1.275 2.819 1.231 3.531 1.369 2.563 0.244 10.881 0.319 10.881 0.319s6.725-0.012 11.2-0.331c0.625-0.075 1.988-0.081 3.206-1.356 0.962-0.969 1.275-3.175 1.275-3.175s0.319-2.587 0.319-5.181v-2.425c-0.006-2.588-0.325-5.181-0.325-5.181zM12.694 20.15v-8.994l8.644 4.513-8.644 4.481z"></path>
</symbol>
</defs>
</svg>
