<svg aria-hidden="true" style="position: absolute; width: 0; height: 0; overflow: hidden;" version="1.1" xmlns="http://www.w3.org/2000/svg" xmlns:xlink="http://www.w3.org/1999/xlink">
<defs>
<symbol id="basket1" viewBox="0 0 30 32">
<path fill="#090909" style="fill: var(--color1, #090909)" d="M10.966 6.945c0.011-0 0.022-0.001 0.033-0.001h14.573c0.011 0 0.022 0 0.033 0.001 0.63 0.026 1.229 0.285 1.679 0.728 0.438 0.431 0.705 1.006 0.752 1.618l2.304 13.643c0.001 0.007 0.002 0.014 0.003 0.022 0.050 0.354 0.026 0.715-0.071 1.059s-0.264 0.665-0.492 0.941-0.51 0.502-0.829 0.663c-0.319 0.161-0.669 0.254-1.026 0.273-0.014 0.001-0.029 0.001-0.043 0.001h-19.193c-0.014 0-0.028-0-0.043-0.001-0.357-0.019-0.707-0.112-1.026-0.273s-0.602-0.387-0.829-0.663-0.395-0.597-0.492-0.941c-0.097-0.344-0.121-0.705-0.071-1.059 0.001-0.007 0.002-0.014 0.003-0.022l2.304-13.643c0.047-0.612 0.314-1.187 0.752-1.618 0.45-0.443 1.048-0.702 1.679-0.728zM11.018 8.562c-0.224 0.013-0.436 0.106-0.596 0.264-0.164 0.161-0.261 0.377-0.274 0.606-0.002 0.030-0.005 0.059-0.010 0.088l-2.309 13.67c-0.017 0.129-0.008 0.261 0.028 0.386 0.036 0.128 0.099 0.248 0.183 0.351s0.19 0.187 0.309 0.247c0.114 0.057 0.238 0.092 0.365 0.101h19.143c0.127-0.009 0.251-0.043 0.365-0.101 0.119-0.060 0.224-0.144 0.309-0.247s0.147-0.223 0.183-0.351c0.035-0.125 0.045-0.257 0.028-0.386l-2.309-13.67c-0.005-0.029-0.008-0.059-0.010-0.088-0.013-0.229-0.111-0.445-0.274-0.606-0.16-0.158-0.372-0.251-0.596-0.264h-14.535z"></path>
<path fill="#090909" style="fill: var(--color1, #090909)" d="M18.288 0.012c1.197 0.004 2.356 0.424 3.277 1.188s1.548 1.825 1.773 3.001c0.084 0.439-0.204 0.862-0.643 0.946s-0.862-0.204-0.946-0.643c-0.154-0.807-0.584-1.535-1.217-2.060s-1.426-0.812-2.247-0.815c-0.818 0.003-1.609 0.289-2.24 0.809s-1.063 1.245-1.221 2.048c-0.086 0.438-0.511 0.724-0.95 0.638s-0.724-0.511-0.638-0.95c0.23-1.17 0.858-2.225 1.778-2.984s2.074-1.176 3.267-1.179l0.002 0.809 0.002-0.809z"></path>
<path fill="#ff9c08" style="fill: var(--color2, #ff9c08)" d="M0 15.238h16.762v16.762h-16.762v-16.762z"></path>
<path fill="#fff" style="fill: var(--color3, #fff)" d="M8.765 26.014c-0.567 0-1.058-0.137-1.472-0.411-0.408-0.28-0.722-0.667-0.942-1.161-0.219-0.5-0.329-1.079-0.329-1.737s0.11-1.234 0.329-1.728c0.219-0.5 0.533-0.887 0.942-1.161 0.414-0.28 0.905-0.421 1.472-0.421s1.054 0.14 1.463 0.421c0.408 0.274 0.722 0.661 0.942 1.161 0.219 0.494 0.329 1.070 0.329 1.728s-0.11 1.237-0.329 1.737c-0.219 0.494-0.533 0.881-0.942 1.161-0.408 0.274-0.896 0.411-1.463 0.411zM8.765 25.338c0.372 0 0.704-0.104 0.997-0.311 0.299-0.213 0.53-0.515 0.695-0.905 0.171-0.396 0.256-0.869 0.256-1.417s-0.085-1.018-0.256-1.408c-0.165-0.39-0.396-0.689-0.695-0.896-0.293-0.213-0.625-0.32-0.997-0.32-0.378 0-0.713 0.107-1.006 0.32-0.293 0.207-0.524 0.506-0.695 0.896s-0.256 0.859-0.256 1.408c0 0.549 0.085 1.021 0.256 1.417 0.171 0.39 0.402 0.692 0.695 0.905 0.293 0.207 0.628 0.311 1.006 0.311z"></path>
</symbol>
<symbol id="logo" viewBox="0 0 36 32">
<path fill="#ff9c08" style="fill: var(--color2, #ff9c08)" d="M34.456 6.333c-1.574-3.479-4.831-5.843-8.466-6.2-2.948-0.268-5.851 0.491-8.178 2.163-0.022 0.022-0.044 0.045-0.067 0.045-0.022-0.022-0.044-0.045-0.066-0.045-2.349-1.673-5.253-2.431-8.178-2.141-3.657 0.335-6.893 2.699-8.488 6.178-1.706 3.724-1.241 8.007 1.285 12.043 3.679 5.888 9.973 10.081 14.605 12.556l0.731 0.357v0.022h0.044l0.886-0.357c4.632-2.476 10.948-6.668 14.605-12.556 2.527-4.059 2.992-8.341 1.285-12.066zM30.156 16.257c-3.036 4.884-8.311 8.52-12.455 10.839v-0.067c-4.145-2.297-9.353-5.933-12.367-10.772-1.795-2.877-2.15-5.799-1.042-8.252 1.019-2.23 3.191-3.814 5.518-4.037 1.928-0.178 3.745 0.245 5.253 1.115-0.886 1.271-1.507 2.699-1.817 4.237-0.598 2.832-0.133 5.598 1.197 7.36 0.864 1.137 2.039 1.762 3.28 1.784 0 0 0 0 0.022 0 0 0 0 0 0.022 0 1.241 0 2.416-0.647 3.28-1.784 1.352-1.762 1.795-4.527 1.197-7.36-0.222-1.070-0.598-2.096-1.108-3.055-1.152 0.647-2.105 1.561-2.793 2.676 0.155 0.379 0.266 0.803 0.355 1.227 0.421 2.030 0 3.502-0.488 4.126-0.067 0.111-0.266 0.335-0.465 0.335s-0.377-0.245-0.465-0.335c-0.488-0.647-0.909-2.119-0.488-4.126 0.82-3.992 4.565-6.579 8.865-6.178 2.349 0.223 4.521 1.806 5.518 4.037 1.13 2.431 0.753 5.353-1.020 8.23z"></path>
</symbol>
<symbol id="house" viewBox="0 0 32 32">
<path fill="#fff" style="fill: var(--color3, #fff)" d="M26.996 14.995v16.044h-22.289v-16.044l11.144-11.561 11.144 11.561z"></path>
<path fill="#ff9c08" style="fill: var(--color2, #ff9c08)" d="M8.262 31.039v-12.553h6.181v12.553h-6.181zM15.852 0.937l-14.859 15.051 1.889 1.889 12.97-13.482 12.97 13.482 1.889-1.889-3.715-3.747v-8.807h-3.715v5.028l-7.429-7.526z"></path>
<path fill="#ff9c08" style="fill: var(--color2, #ff9c08)" d="M10.888 14.131c0.993-5.572 8.903-5.572 9.895 0h-9.895z"></path>
<path fill="#090909" style="fill: var(--color1, #090909)" d="M26.996 32h-22.289c-0.544 0-0.961-0.416-0.961-0.961v-12.842h-1.505c-0.256 0-0.512-0.096-0.704-0.288l-1.249-1.249c-0.384-0.384-0.384-0.961 0-1.345l14.859-15.051c0.352-0.352 0.993-0.352 1.377 0l5.764 5.86v-2.69c0-0.544 0.416-0.961 0.961-0.961h3.715c0.544 0 0.961 0.416 0.961 0.961v8.39l3.427 3.491c0.384 0.384 0.384 0.961 0 1.345l-1.249 1.249c-0.192 0.192-0.416 0.288-0.672 0.288h-1.505v12.842c0.032 0.544-0.416 0.961-0.929 0.961zM5.668 30.078h20.335v-12.842c0-0.256 0.096-0.512 0.288-0.672 0.192-0.192 0.448-0.288 0.673-0.288h2.082l0.288-0.288-3.042-3.074c-0.192-0.192-0.288-0.416-0.288-0.672v-7.846h-1.793v4.067c0 0.384-0.224 0.737-0.609 0.897-0.352 0.16-0.769 0.064-1.057-0.224l-6.693-6.821-13.482 13.674 0.288 0.288h2.082c0.256 0 0.512 0.096 0.673 0.288 0.192 0.192 0.288 0.416 0.288 0.672v12.842h-0.032z"></path>
<path fill="#ff9c08" style="fill: var(--color2, #ff9c08)" d="M17.261 18.486h6.181v6.277h-6.181v-6.277z"></path>
<path fill="#fff" style="fill: var(--color3, #fff)" d="M11.337 20.375c-0.331 0-0.649 0.132-0.883 0.366s-0.366 0.552-0.366 0.883c0 0.331 0.132 0.649 0.366 0.883s0.552 0.366 0.883 0.366c0.331 0 0.649-0.132 0.883-0.366s0.366-0.552 0.366-0.883c0-0.331-0.132-0.649-0.366-0.883s-0.552-0.366-0.883-0.366z"></path>
</symbol>
<symbol id="heart" viewBox="0 0 39 32">
<path fill="#ff9c08" style="fill: var(--color2, #ff9c08)" d="M26.807 2.162c-0.003 0-0.005 0-0.007 0-0.001 0-0.002 0-0.003 0s-0.002 0-0.003 0c-0.538 0.001-1.076 0.048-1.605 0.133-0.376 0.062-0.746 0.146-1.108 0.249 4.093 1.175 7.113 4.809 7.113 9.187 0 2.987-1.448 4.154-3.641 7.375l-8.122 10.455 13.629-10.455c2.194-1.774 3.64-4.387 3.64-7.375 0-5.321-4.481-9.568-9.895-9.568z"></path>
<path fill="#ff9c08" style="fill: var(--color2, #ff9c08); stroke: var(--color1, #090909)" stroke="#090909" stroke-linejoin="miter" stroke-linecap="butt" stroke-miterlimit="4" stroke-width="1.9048" d="M19.446 4.068c-1.891-1.784-4.512-2.858-7.389-2.858-6.007 0-10.848 4.694-10.848 10.521 0 3.353 1.65 6.38 4.252 8.321l13.97 10.709 14.21-10.901c2.465-1.9 4.011-4.835 4.011-8.13 0-5.882-4.942-10.521-10.847-10.521-2.809 0-5.416 1.083-7.361 2.858z"></path>
<path fill="#fff" style="fill: var(--color3, #fff)" d="M12.057 5.009c-3.827 0-6.908 3.034-6.908 6.721 0 0.793 0.607 1.4 1.4 1.4s1.4-0.607 1.4-1.4c0-2.147 1.867-3.92 4.107-3.92 0.793 0 1.4-0.607 1.4-1.4s-0.607-1.4-1.4-1.4z"></path>
</symbol>
<symbol id="basket" viewBox="0 0 32 32">
<path fill="#f08200" style="fill: var(--color4, #f08200)" d="M28.661 11.149v-4.303c0-3.366-2.708-6.074-6.074-6.074s-6.074 2.708-6.074 6.074v4.303z"></path>
<path fill="#ff9c08" style="fill: var(--color2, #ff9c08)" d="M13.729 22.538c4.892 0 8.858-3.966 8.858-8.858s-3.966-8.858-8.858-8.858c-4.892 0-8.858 3.966-8.858 8.858s3.966 8.858 8.858 8.858z"></path>
<path fill="#fff" style="fill: var(--color3, #fff)" d="M31.192 10.896h-30.37l2.252 18.020c0.152 1.265 1.24 2.227 2.506 2.227h20.829c1.265 0 2.354-0.962 2.506-2.227l2.278-18.020z"></path>
<path fill="#090909" style="fill: var(--color1, #090909)" d="M8.414 26.84c-0.38 0-0.709-0.278-0.759-0.658l-1.265-10.123c-0.051-0.405 0.253-0.785 0.658-0.835s0.785 0.253 0.835 0.658l1.265 10.124c0.051 0.405-0.253 0.784-0.658 0.835-0.025 0-0.051 0-0.076 0z"></path>
<path fill="#090909" style="fill: var(--color1, #090909)" d="M13.476 26.84c-0.43 0-0.759-0.329-0.759-0.759v-10.123c0-0.43 0.329-0.759 0.759-0.759s0.759 0.329 0.759 0.759v10.123c0 0.43-0.329 0.759-0.759 0.759z"></path>
<path fill="#090909" style="fill: var(--color1, #090909)" d="M18.538 26.84c-0.43 0-0.759-0.329-0.759-0.759v-10.123c0-0.43 0.329-0.759 0.759-0.759s0.759 0.329 0.759 0.759v10.123c0 0.43-0.329 0.759-0.759 0.759z"></path>
<path fill="#090909" style="fill: var(--color1, #090909)" d="M23.599 26.84c-0.025 0-0.051 0-0.101 0-0.405-0.051-0.708-0.43-0.658-0.835l1.266-10.124c0.051-0.405 0.43-0.709 0.835-0.658s0.709 0.43 0.658 0.835l-1.265 10.123c-0.025 0.38-0.354 0.658-0.734 0.658z"></path>
<path fill="#ff9c08" style="fill: var(--color2, #ff9c08)" d="M7.149 7.099h-2.025c-2.379 0-4.303-1.923-4.303-4.303v-2.025h2.025c2.379 0 4.303 1.923 4.303 4.303v2.025z"></path>
<path fill="#090909" style="fill: var(--color1, #090909)" d="M31.749 10.39c-0.152-0.152-0.354-0.253-0.557-0.253h-1.772v-3.29c0-3.771-3.062-6.833-6.833-6.833-1.67 0-3.29 0.607-4.53 1.721-0.304 0.278-0.329 0.759-0.051 1.063s0.759 0.329 1.063 0.051c0.962-0.835 2.202-1.316 3.518-1.316 2.303 0 4.277 1.493 5.011 3.543l-3.113 2.607c-0.329 0.278-0.354 0.759-0.101 1.063 0.152 0.177 0.354 0.278 0.582 0.278 0.177 0 0.354-0.051 0.481-0.177l2.43-2.050c0 0.025 0 0.025 0 0.051v3.29h-21.69c1.367-2.784 4.151-4.556 7.289-4.556 0.43 0 0.759-0.329 0.759-0.759s-0.329-0.759-0.759-0.759c-2.050 0-3.973 0.633-5.568 1.772v-0.759c0-2.784-2.278-5.062-5.062-5.062h-2.025c-0.43 0-0.759 0.329-0.759 0.759v2.025c0 2.784 2.278 5.062 5.062 5.062h0.683c-0.506 0.683-0.962 1.443-1.291 2.278h-3.695c-0.228 0-0.43 0.101-0.557 0.253s-0.228 0.38-0.202 0.607l2.252 18.020c0.202 1.645 1.62 2.885 3.265 2.885h20.829c1.645 0 3.062-1.24 3.265-2.885l2.252-18.020c0.051-0.228-0.025-0.43-0.177-0.607zM1.581 2.797v-1.265h1.265c1.949 0 3.543 1.594 3.543 3.543v1.265h-1.265c-1.949 0-3.543-1.594-3.543-3.543zM28.18 28.84c-0.101 0.886-0.861 1.544-1.746 1.544h-20.854c-0.886 0-1.645-0.658-1.746-1.544l-2.151-17.185h28.65l-2.151 17.185z"></path>
</symbol>
<symbol id="tree" viewBox="0 0 24 32">
<path fill="#ff9c08" style="fill: var(--color2, #ff9c08)" d="M18.208 10.274c0.462-0.862 0.739-1.878 0.739-2.955 0-3.478-2.801-6.28-6.218-6.28s-6.218 2.801-6.218 6.28c0 0.154 0 0.277 0.031 0.431-3.201 1.077-5.479 4.125-5.479 7.726 0 4.494 3.632 8.157 8.096 8.157h6.711c3.786 0 6.834-3.078 6.834-6.895-0.031-2.955-1.878-5.479-4.494-6.464z"></path>
<path fill="#fff" style="fill: var(--color3, #fff)" d="M11.867 8.92c-0.523 0-0.924 0.4-0.924 0.924v4.186l-3.632-1.847c-0.123-0.062-0.277-0.092-0.431-0.092-0.339 0-0.646 0.185-0.8 0.493-0.215 0.462-0.062 1.016 0.4 1.231l4.433 2.309v4.956c0 0.523 0.4 0.924 0.924 0.924s0.923-0.4 0.923-0.924v-0.554l4.463-2.247c0.462-0.246 0.646-0.8 0.431-1.262-0.154-0.308-0.462-0.523-0.801-0.523-0.154 0-0.277 0.031-0.431 0.123l-3.632 1.847v-8.619c0-0.523-0.4-0.924-0.923-0.924z"></path>
<path fill="#090909" style="fill: var(--color1, #090909)" d="M15.807 24.588h-6.711c-4.956 0-9.019-4.063-9.019-9.081 0-3.663 2.186-6.926 5.479-8.342 0.123-3.909 3.263-7.018 7.142-7.018 3.94 0 7.142 3.232 7.142 7.203 0 0.831-0.154 1.693-0.431 2.463 2.524 1.324 4.156 4.002 4.156 6.926 0.031 4.34-3.448 7.849-7.757 7.849zM12.698 1.994c-2.924 0-5.295 2.401-5.295 5.356 0 0.123 0 0.246 0 0.369 0.031 0.431-0.215 0.8-0.616 0.923-2.924 0.985-4.864 3.755-4.864 6.834 0 4.002 3.201 7.234 7.172 7.234h6.711c3.263 0 5.91-2.678 5.91-5.972 0-2.493-1.539-4.741-3.848-5.602-0.246-0.092-0.431-0.277-0.554-0.523-0.093-0.246-0.093-0.523 0.061-0.77 0.4-0.77 0.616-1.631 0.616-2.524 0-2.924-2.37-5.325-5.295-5.325zM11.836 31.853c-0.523 0-0.923-0.4-0.923-0.924v-4.771c0-0.523 0.4-0.923 0.923-0.923s0.924 0.4 0.924 0.923v4.771c0 0.523-0.4 0.924-0.924 0.924z"></path>
</symbol>
<symbol id="edu" viewBox="0 0 41 32">
<path fill="#ff9c08" style="fill: var(--color2, #ff9c08)" d="M22.419 17.092c-1.074 0.403-2.282 0.403-3.39 0l-16.85-6.512c-1.141-0.436-1.141-2.081 0-2.517l16.883-6.478c1.074-0.403 2.282-0.403 3.39 0l16.883 6.478c0.604 0.235 0.94 0.772 0.906 1.309v0.705l-17.823 7.015z"></path>
<path fill="#090909" style="fill: var(--color1, #090909)" d="M39.671 7.156l-16.883-6.512c-1.309-0.503-2.786-0.503-4.095 0l-16.883 6.512c-0.906 0.336-1.51 1.208-1.51 2.182s0.604 1.846 1.51 2.182l4.498 1.745v7.821c0 6.847 7.72 7.72 14.433 7.72s14.433-0.873 14.433-7.72v-6.545c0-0.772-0.37-1.51-1.007-1.947s-1.443-0.537-2.181-0.269l-9.935 3.826c-0.839 0.336-1.813 0.336-2.652 0l-16.85-6.512c-0.168-0.067-0.201-0.201-0.201-0.302s0.034-0.235 0.201-0.302l16.883-6.478c0.839-0.336 1.813-0.336 2.652 0l16.883 6.478c0.201 0.067 0.269 0.235 0.269 0.336 0 0.034 0 0.034 0 0.067v4.934c0 0.571 0.436 1.007 1.007 1.007s1.007-0.436 1.007-1.007v-4.934c0-1.007-0.605-1.913-1.578-2.282z"></path>
<path fill="#090909" style="fill: var(--color1, #090909)" d="M40.208 22.093c-0.571 0-1.007-0.436-1.007-1.007v-1.678c0-0.571 0.436-1.007 1.007-1.007s1.007 0.436 1.007 1.007v1.678c0 0.571-0.436 1.007-1.007 1.007z"></path>
<path fill="#fff" style="fill: var(--color3, #fff); stroke: var(--color1, #090909)" stroke="#090909" stroke-linejoin="miter" stroke-linecap="butt" stroke-miterlimit="4" stroke-width="1.9512" d="M6.814 12.586l-1.299-0.516-0.036 1.397-0.2 7.755-0 0.006-0 0.006c-0.047 3.513 1.206 5.541 2.242 6.259 1.102 1.165 2.929 2.001 5.013 2.54 2.178 0.563 4.779 0.837 7.48 0.762h0.010c3.934-0.148 6.344-0.637 7.984-1.212 1.173-0.412 2.012-0.91 2.585-1.249 0.199-0.118 0.366-0.217 0.503-0.287l0.099-0.050 0.085-0.071c1.425-1.188 2.181-2.199 2.573-3.179 0.309-0.774 0.368-1.509 0.413-2.072 0.010-0.125 0.019-0.24 0.030-0.346l0.005-0.052-0-0.052c-0.003-1.062-0.036-3.174-0.065-4.999-0.009-0.547-0.017-1.067-0.024-1.527-0.023-1.501-1.546-2.544-2.956-2.005l-10.669 4.083c-0.228 0.087-0.481 0.086-0.709-0.004l-13.065-5.186z"></path>
</symbol>
<symbol id="med" viewBox="0 0 35 32">
<path fill="#ff9c08" style="fill: var(--color2, #ff9c08)" d="M30.955 30.911h-27.016c-1.651 0-3.002-1.351-3.002-3.002v-18.011c0-1.651 1.351-3.002 3.002-3.002h27.016c1.651 0 3.002 1.351 3.002 3.002v18.011c0 1.651-1.351 3.002-3.002 3.002z"></path>
<path fill="#090909" style="fill: var(--color1, #090909)" d="M30.955 31.811h-27.016c-2.161 0-3.902-1.741-3.902-3.903v-18.011c0-2.161 1.741-3.902 3.902-3.902h27.016c2.161 0 3.902 1.741 3.902 3.902v18.011c0 2.162-1.741 3.903-3.902 3.903zM3.939 7.797c-1.171 0-2.101 0.931-2.101 2.101v18.011c0 1.171 0.931 2.101 2.101 2.101h27.016c1.171 0 2.101-0.93 2.101-2.101v-18.011c0-1.171-0.931-2.101-2.101-2.101h-27.016z"></path>
<path fill="#090909" style="fill: var(--color1, #090909)" d="M23.451 7.797c-0.51 0-0.9-0.39-0.9-0.901 0-2.642-2.161-4.803-4.803-4.803h-0.6c-1.531 0-2.912 0.69-3.842 1.921-0.3 0.39-0.87 0.48-1.261 0.18s-0.48-0.87-0.18-1.261c1.261-1.681 3.182-2.642 5.283-2.642h0.6c3.632 0 6.604 2.972 6.604 6.604 0 0.51-0.39 0.901-0.9 0.901z"></path>
<path fill="#fff" style="fill: var(--color3, #fff)" d="M22.85 16.802h-3.302v-3.302c0-0.51-0.39-0.901-0.901-0.901h-2.401c-0.51 0-0.901 0.39-0.901 0.901v3.302h-3.302c-0.51 0-0.901 0.39-0.901 0.901v2.401c0 0.51 0.39 0.9 0.901 0.9h3.302v3.302c0 0.51 0.39 0.9 0.901 0.9h2.401c0.51 0 0.901-0.39 0.901-0.9v-3.302h3.302c0.51 0 0.9-0.39 0.9-0.9v-2.401c0-0.51-0.39-0.901-0.9-0.901z"></path>
</symbol>
<symbol id="google-plus" viewBox="0 0 32 32">
<path d="M10.181 14.294v3.494h5.775c-0.231 1.5-1.744 4.394-5.775 4.394-3.475 0-6.313-2.881-6.313-6.431s2.838-6.431 6.313-6.431c1.981 0 3.3 0.844 4.056 1.569l2.762-2.662c-1.775-1.656-4.075-2.662-6.819-2.662-5.631 0.006-10.181 4.556-10.181 10.188s4.55 10.181 10.181 10.181c5.875 0 9.775-4.131 9.775-9.95 0-0.669-0.075-1.181-0.163-1.688h-9.613z"></path>
<path d="M32 14h-3v-3h-3v3h-3v3h3v3h3v-3h3z"></path>
</symbol>
<symbol id="facebook" viewBox="0 0 32 32">
<path d="M19 6h5v-6h-5c-3.86 0-7 3.14-7 7v3h-4v6h4v16h6v-16h5l1-6h-6v-3c0-0.542 0.458-1 1-1z"></path>
</symbol>
<symbol id="instagram" viewBox="0 0 32 32">
<path d="M16 2.881c4.275 0 4.781 0.019 6.462 0.094 1.563 0.069 2.406 0.331 2.969 0.55 0.744 0.288 1.281 0.638 1.837 1.194 0.563 0.563 0.906 1.094 1.2 1.838 0.219 0.563 0.481 1.412 0.55 2.969 0.075 1.688 0.094 2.194 0.094 6.463s-0.019 4.781-0.094 6.463c-0.069 1.563-0.331 2.406-0.55 2.969-0.288 0.744-0.637 1.281-1.194 1.837-0.563 0.563-1.094 0.906-1.837 1.2-0.563 0.219-1.413 0.481-2.969 0.55-1.688 0.075-2.194 0.094-6.463 0.094s-4.781-0.019-6.463-0.094c-1.563-0.069-2.406-0.331-2.969-0.55-0.744-0.288-1.281-0.637-1.838-1.194-0.563-0.563-0.906-1.094-1.2-1.837-0.219-0.563-0.481-1.413-0.55-2.969-0.075-1.688-0.094-2.194-0.094-6.463s0.019-4.781 0.094-6.463c0.069-1.563 0.331-2.406 0.55-2.969 0.288-0.744 0.638-1.281 1.194-1.838 0.563-0.563 1.094-0.906 1.838-1.2 0.563-0.219 1.412-0.481 2.969-0.55 1.681-0.075 2.188-0.094 6.463-0.094zM16 0c-4.344 0-4.887 0.019-6.594 0.094-1.7 0.075-2.869 0.35-3.881 0.744-1.056 0.412-1.95 0.956-2.837 1.85-0.894 0.888-1.438 1.781-1.85 2.831-0.394 1.019-0.669 2.181-0.744 3.881-0.075 1.713-0.094 2.256-0.094 6.6s0.019 4.887 0.094 6.594c0.075 1.7 0.35 2.869 0.744 3.881 0.413 1.056 0.956 1.95 1.85 2.837 0.887 0.887 1.781 1.438 2.831 1.844 1.019 0.394 2.181 0.669 3.881 0.744 1.706 0.075 2.25 0.094 6.594 0.094s4.888-0.019 6.594-0.094c1.7-0.075 2.869-0.35 3.881-0.744 1.050-0.406 1.944-0.956 2.831-1.844s1.438-1.781 1.844-2.831c0.394-1.019 0.669-2.181 0.744-3.881 0.075-1.706 0.094-2.25 0.094-6.594s-0.019-4.887-0.094-6.594c-0.075-1.7-0.35-2.869-0.744-3.881-0.394-1.063-0.938-1.956-1.831-2.844-0.887-0.887-1.781-1.438-2.831-1.844-1.019-0.394-2.181-0.669-3.881-0.744-1.712-0.081-2.256-0.1-6.6-0.1v0z"></path>
<path d="M16 7.781c-4.537 0-8.219 3.681-8.219 8.219s3.681 8.219 8.219 8.219 8.219-3.681 8.219-8.219c0-4.537-3.681-8.219-8.219-8.219zM16 21.331c-2.944 0-5.331-2.387-5.331-5.331s2.387-5.331 5.331-5.331c2.944 0 5.331 2.387 5.331 5.331s-2.387 5.331-5.331 5.331z"></path>
<path d="M26.462 7.456c0 1.060-0.859 1.919-1.919 1.919s-1.919-0.859-1.919-1.919c0-1.060 0.859-1.919 1.919-1.919s1.919 0.859 1.919 1.919z"></path>
</symbol>
<symbol id="twitter" viewBox="0 0 32 32">
<path d="M32 7.075c-1.175 0.525-2.444 0.875-3.769 1.031 1.356-0.813 2.394-2.1 2.887-3.631-1.269 0.75-2.675 1.3-4.169 1.594-1.2-1.275-2.906-2.069-4.794-2.069-3.625 0-6.563 2.938-6.563 6.563 0 0.512 0.056 1.012 0.169 1.494-5.456-0.275-10.294-2.888-13.531-6.862-0.563 0.969-0.887 2.1-0.887 3.3 0 2.275 1.156 4.287 2.919 5.463-1.075-0.031-2.087-0.331-2.975-0.819 0 0.025 0 0.056 0 0.081 0 3.181 2.263 5.838 5.269 6.437-0.55 0.15-1.131 0.231-1.731 0.231-0.425 0-0.831-0.044-1.237-0.119 0.838 2.606 3.263 4.506 6.131 4.563-2.25 1.762-5.075 2.813-8.156 2.813-0.531 0-1.050-0.031-1.569-0.094 2.913 1.869 6.362 2.95 10.069 2.95 12.075 0 18.681-10.006 18.681-18.681 0-0.287-0.006-0.569-0.019-0.85 1.281-0.919 2.394-2.075 3.275-3.394z"></path>
</symbol>
<symbol id="rss" viewBox="0 0 32 32">
<path d="M4.259 23.467c-2.35 0-4.259 1.917-4.259 4.252 0 2.349 1.909 4.244 4.259 4.244 2.358 0 4.265-1.895 4.265-4.244-0-2.336-1.907-4.252-4.265-4.252zM0.005 10.873v6.133c3.993 0 7.749 1.562 10.577 4.391 2.825 2.822 4.384 6.595 4.384 10.603h6.16c-0-11.651-9.478-21.127-21.121-21.127zM0.012 0v6.136c14.243 0 25.836 11.604 25.836 25.864h6.152c0-17.64-14.352-32-31.988-32z"></path>
</symbol>
<symbol id="youtube" viewBox="0 0 32 32">
<path d="M31.681 9.6c0 0-0.313-2.206-1.275-3.175-1.219-1.275-2.581-1.281-3.206-1.356-4.475-0.325-11.194-0.325-11.194-0.325h-0.012c0 0-6.719 0-11.194 0.325-0.625 0.075-1.987 0.081-3.206 1.356-0.963 0.969-1.269 3.175-1.269 3.175s-0.319 2.588-0.319 5.181v2.425c0 2.587 0.319 5.181 0.319 5.181s0.313 2.206 1.269 3.175c1.219 1.275 2.819 1.231 3.531 1.369 2.563 0.244 10.881 0.319 10.881 0.319s6.725-0.012 11.2-0.331c0.625-0.075 1.988-0.081 3.206-1.356 0.962-0.969 1.275-3.175 1.275-3.175s0.319-2.587 0.319-5.181v-2.425c-0.006-2.588-0.325-5.181-0.325-5.181zM12.694 20.15v-8.994l8.644 4.513-8.644 4.481z"></path>
</symbol>
</defs>
</svg>
